<!DOCTYPE svg PUBLIC "-//W3C//DTD SVG 1.1//EN" "http://www.w3.org/Graphics/SVG/1.1/DTD/svg11.dtd">
<!-- Uploaded to: SVG Repo, www.svgrepo.com, Transformed by: SVG Repo Mixer Tools -->
<svg height="800px" width="800px" version="1.1" id="Layer_1" xmlns="http://www.w3.org/2000/svg" xmlns:xlink="http://www.w3.org/1999/xlink" viewBox="0 0 496.158 496.158" xml:space="preserve" fill="#000000">
<g id="SVGRepo_bgCarrier" stroke-width="0"/>
<g id="SVGRepo_tracerCarrier" stroke-linecap="round" stroke-linejoin="round"/>
<g id="SVGRepo_iconCarrier"> <path style="fill:#F9CCD3;" d="M496.158,248.085c0-137.022-111.07-248.082-248.077-248.082C111.07,0.003,0,111.063,0,248.085 c0,137.001,111.07,248.07,248.081,248.07C385.088,496.155,496.158,385.086,496.158,248.085z"/> <path style="fill:#E2A379;" d="M286.969,282.118h-77.78c12.136,36.588,0.978,53.295,0.978,53.295l26.912,12.916h22l26.912-12.916 C285.991,335.413,274.833,318.706,286.969,282.118z"/> <path style="fill:#F4B382;" d="M327.831,175.175c0-92.429-35.706-113.596-79.75-113.596c-44.048,0-79.755,21.167-79.755,113.596 c0,31.266,5.595,55.766,13.972,74.674c18.432,41.598,50.336,56.136,65.783,56.136c15.445,0,47.348-14.538,65.779-56.136 C322.237,230.94,327.831,206.441,327.831,175.175z"/> <path style="fill:#F9CCD3;" d="M248.081,73.071c-40.627,0-73.561,19.522-73.561,104.772c0,28.837,5.16,51.434,12.889,68.873 c16.998,38.366,46.425,51.775,60.672,51.775c14.244,0,43.67-13.409,60.67-51.775c7.727-17.439,12.887-40.035,12.887-68.873 C321.638,92.594,288.704,73.071,248.081,73.071z M248.079,280.284c-13.992,0-25.334-5.866-25.334-13.103 s11.342-13.102,25.334-13.102s25.334,5.866,25.334,13.103S262.071,280.284,248.079,280.284z"/> <circle style="fill:#58841F;" cx="217.079" cy="198.079" r="27.564"/> <circle style="fill:#CDE580;" cx="217.079" cy="198.079" r="25.445"/> <circle style="fill:#D6E88B;" cx="217.079" cy="198.079" r="21.561"/> <g> <path style="fill:#B8C973;" d="M230.324,192.724c-0.052-0.138-0.161-0.246-0.301-0.294c-0.139-0.048-0.292-0.031-0.417,0.045 l-8.545,5.22c-0.146,0.089-0.234,0.247-0.235,0.417c-0.001,0.17,0.087,0.329,0.231,0.42l8.502,5.328 c0.079,0.05,0.17,0.076,0.262,0.076c0.052,0,0.105-0.009,0.156-0.026c0.14-0.047,0.251-0.154,0.303-0.292 C231.618,200.111,231.634,196.242,230.324,192.724z"/> <path style="fill:#B8C973;" d="M228.495,205.449l-8.963-4.534c-0.152-0.078-0.335-0.07-0.48,0.02 c-0.146,0.09-0.234,0.25-0.234,0.421l0.029,10.141c0,0.148,0.066,0.287,0.182,0.38c0.06,0.049,0.129,0.082,0.201,0.099 c0.068,0.015,0.139,0.016,0.207,0.002c3.68-0.747,6.957-2.804,9.229-5.792c0.089-0.116,0.121-0.266,0.088-0.408 C228.72,205.636,228.626,205.515,228.495,205.449z"/> <path style="fill:#B8C973;" d="M219.435,195.426c0.038-0.009,0.075-0.023,0.11-0.041l8.988-4.67 c0.131-0.068,0.223-0.189,0.254-0.332c0.031-0.142-0.002-0.292-0.092-0.407c-2.303-2.965-5.601-4.989-9.286-5.698 c-0.144-0.028-0.294,0.01-0.407,0.104s-0.178,0.232-0.178,0.38l0.002,10.186c-0.001,0.172,0.089,0.332,0.236,0.421 C219.177,195.436,219.309,195.456,219.435,195.426z"/> <path style="fill:#B8C973;" d="M205.052,192.724c0.051-0.138,0.16-0.246,0.301-0.294c0.139-0.048,0.291-0.031,0.417,0.045 l8.544,5.22c0.146,0.089,0.234,0.247,0.236,0.417c0,0.17-0.087,0.329-0.231,0.42l-8.503,5.328c-0.078,0.05-0.17,0.076-0.261,0.076 c-0.052,0-0.105-0.009-0.157-0.026c-0.139-0.047-0.25-0.154-0.303-0.292C203.757,200.111,203.742,196.242,205.052,192.724z"/> <path style="fill:#B8C973;" d="M206.88,205.449l8.963-4.534c0.153-0.078,0.336-0.07,0.48,0.02c0.146,0.09,0.235,0.25,0.234,0.421 l-0.028,10.141c-0.001,0.148-0.067,0.287-0.182,0.38c-0.06,0.049-0.13,0.082-0.203,0.099c-0.067,0.015-0.137,0.016-0.206,0.002 c-3.68-0.747-6.957-2.804-9.229-5.792c-0.088-0.116-0.12-0.266-0.088-0.408C206.655,205.636,206.749,205.515,206.88,205.449z"/> <path style="fill:#B8C973;" d="M215.94,195.426c-0.038-0.009-0.076-0.023-0.111-0.041l-8.988-4.67 c-0.129-0.068-0.223-0.189-0.254-0.332c-0.031-0.142,0.003-0.292,0.093-0.407c2.302-2.965,5.601-4.989,9.286-5.698 c0.144-0.028,0.293,0.01,0.406,0.104s0.179,0.232,0.179,0.38l-0.003,10.186c0,0.172-0.088,0.332-0.236,0.421 C216.199,195.436,216.065,195.456,215.94,195.426z"/> </g> <circle style="fill:#58841F;" cx="279.079" cy="198.079" r="27.564"/> <circle style="fill:#CDE580;" cx="279.079" cy="198.079" r="25.445"/> <circle style="fill:#D6E88B;" cx="279.079" cy="198.079" r="21.561"/> <g> <path style="fill:#B8C973;" d="M292.324,192.724c-0.052-0.138-0.161-0.246-0.301-0.294c-0.139-0.048-0.292-0.031-0.417,0.045 l-8.545,5.22c-0.146,0.089-0.234,0.247-0.235,0.417c-0.001,0.17,0.087,0.329,0.231,0.42l8.502,5.328 c0.079,0.05,0.17,0.076,0.262,0.076c0.052,0,0.105-0.009,0.156-0.026c0.14-0.047,0.251-0.154,0.303-0.292 C293.618,200.111,293.634,196.242,292.324,192.724z"/> <path style="fill:#B8C973;" d="M290.495,205.449l-8.963-4.534c-0.152-0.078-0.335-0.07-0.48,0.02 c-0.146,0.09-0.234,0.25-0.234,0.421l0.029,10.141c0,0.148,0.066,0.287,0.182,0.38c0.06,0.049,0.129,0.082,0.201,0.099 c0.068,0.015,0.139,0.016,0.207,0.002c3.68-0.747,6.957-2.804,9.229-5.792c0.089-0.116,0.121-0.266,0.088-0.408 C290.72,205.636,290.626,205.515,290.495,205.449z"/> <path style="fill:#B8C973;" d="M281.435,195.426c0.038-0.009,0.075-0.023,0.11-0.041l8.988-4.67 c0.131-0.068,0.223-0.189,0.254-0.332c0.031-0.142-0.002-0.292-0.092-0.407c-2.303-2.965-5.601-4.989-9.286-5.698 c-0.144-0.028-0.294,0.01-0.407,0.104s-0.178,0.232-0.178,0.38l0.002,10.186c-0.001,0.172,0.089,0.332,0.236,0.421 C281.177,195.436,281.309,195.456,281.435,195.426z"/> <path style="fill:#B8C973;" d="M267.052,192.724c0.051-0.138,0.16-0.246,0.301-0.294c0.139-0.048,0.291-0.031,0.417,0.045 l8.544,5.22c0.146,0.089,0.234,0.247,0.236,0.417c0,0.17-0.087,0.329-0.231,0.42l-8.503,5.328c-0.078,0.05-0.17,0.076-0.261,0.076 c-0.052,0-0.105-0.009-0.157-0.026c-0.139-0.047-0.25-0.154-0.303-0.292C265.757,200.111,265.742,196.242,267.052,192.724z"/> <path style="fill:#B8C973;" d="M268.88,205.449l8.963-4.534c0.154-0.078,0.336-0.07,0.48,0.02c0.146,0.09,0.235,0.25,0.234,0.421 l-0.028,10.141c-0.001,0.148-0.067,0.287-0.182,0.38c-0.06,0.049-0.13,0.082-0.203,0.099c-0.067,0.015-0.137,0.016-0.206,0.002 c-3.68-0.747-6.957-2.804-9.229-5.792c-0.088-0.116-0.12-0.266-0.088-0.408C268.655,205.636,268.749,205.515,268.88,205.449z"/> <path style="fill:#B8C973;" d="M277.94,195.426c-0.038-0.009-0.076-0.023-0.111-0.041l-8.988-4.67 c-0.129-0.068-0.223-0.189-0.254-0.332c-0.031-0.142,0.003-0.292,0.093-0.407c2.302-2.965,5.601-4.989,9.286-5.698 c0.144-0.028,0.293,0.01,0.406,0.104s0.179,0.232,0.179,0.38l-0.003,10.186c0,0.172-0.088,0.332-0.236,0.421 C278.199,195.436,278.065,195.456,277.94,195.426z"/> </g> <path style="fill:#D6876B;" d="M270.579,268.079c0,0-10.074,5.25-22.5,5.25s-22.5-5.25-22.5-5.25c0-1.36,7.141-9.591,11.939-10.313 c2.994-0.451,10.561,2.479,10.561,2.479s7.461-2.938,10.432-2.5C263.382,258.466,270.579,268.079,270.579,268.079z"/> <path style="fill:#CC785E;" d="M270.579,268.079c0,0-10.074,9.125-22.5,9.125s-22.5-9.125-22.5-9.125s2.325-2.807,15.475-3.617 c2.217-0.137,5.101,1.617,7.025,1.617c1.666,0,4.176-1.773,6.127-1.668C267.862,265.143,270.579,268.079,270.579,268.079z"/> <path style="fill:#334D5C;" d="M247.745,333.399c-77.166,0-139.095,22.055-146.407,49.334c-3.259,12.158-6.962,35.191-10.126,57.524 c42.747,34.934,97.357,55.897,156.869,55.897c59.51,0,114.117-20.963,156.863-55.896c-3.164-22.333-6.867-45.368-10.126-57.526 C387.506,355.454,324.911,333.399,247.745,333.399z"/> <g> <path style="fill:#E2A379;" d="M248.155,390.079c44.924,0,37.756-54.666,37.756-54.666s-8.914,17.333-38.123,17.333 s-37.543-17.333-37.543-17.333S203.229,390.079,248.155,390.079z"/> <path style="fill:#E2A379;" d="M210.167,335.413c0,0,16.828,28.072,37.62,28.072s38.204-28.072,38.204-28.072l-38.162-18.418 L210.167,335.413z"/> </g> <ellipse style="fill:#4C230C;" cx="248.079" cy="66.079" rx="41.998" ry="28.668"/> <path style="fill:#602F0F;" d="M330.745,179.079c0-92.428-25.333-117.5-82.666-117.5s-82.666,25.072-82.666,117.5 c0,0,122.666-26.5,122.666-60.147C288.079,152.579,330.745,179.079,330.745,179.079z"/> <g> <path style="fill:#F4B382;" d="M160.643,207.708c4.303,25.158,9.645,26.328,17.268,25.025l-8.146-54.771 C162.141,179.267,156.343,182.55,160.643,207.708z"/> <path style="fill:#F4B382;" d="M326.491,177.962l-8.146,54.771c7.625,1.303,12.967,0.133,17.268-25.025 C339.915,182.55,334.114,179.267,326.491,177.962z"/> </g> <g> <path style="fill:#602F0F;" d="M174.746,183.079c-0.427-2.699-0.49-5.166-0.419-7.146c0.102-2.851,0.486-4.687,0.486-4.687 l-9.375,3.501c-0.018,1.428-0.025,2.871-0.025,4.332c0,0,1.012-0.325,2.799-0.943c-0.085,0.029-0.175,0.061-0.256,0.088 c1.288,2.19,2.903,5.553,4.457,10.522C172.413,188.746,176.075,191.474,174.746,183.079z"/> <path style="fill:#602F0F;" d="M321.87,175.954c0.07,1.977,0.006,4.436-0.42,7.125c-1.328,8.395,2.334,5.667,2.334,5.667 c1.55-4.96,3.154-8.322,4.432-10.517c1.619,0.558,2.529,0.85,2.529,0.85c0-1.466-0.008-2.914-0.025-4.347l-9.337-3.486 C321.383,171.246,321.768,173.091,321.87,175.954"/> </g> </g>
</svg>